<?xml version="1.0" standalone="no"?>
<!DOCTYPE svg PUBLIC "-//W3C//DTD SVG 20010904//EN"
 "http://www.w3.org/TR/2001/REC-SVG-20010904/DTD/svg10.dtd">
<svg version="1.0" xmlns="http://www.w3.org/2000/svg"
 width="445.000000pt" height="445.000000pt" viewBox="0 0 445.000000 445.000000"
 preserveAspectRatio="xMidYMid meet">
<metadata>
Created by potrace 1.14, written by Peter Selinger 2001-2017
</metadata>
<g transform="translate(0.000000,445.000000) scale(0.100000,-0.100000)"
fill="#000000" stroke="none">
<path d="M2010 4439 c-30 -4 -78 -10 -106 -13 -28 -4 -59 -8 -70 -10 -10 -3
-55 -12 -99 -21 -276 -57 -599 -207 -855 -398 -122 -91 -336 -305 -427 -427
-247 -332 -397 -710 -440 -1115 -10 -88 -10 -355 -1 -455 32 -345 162 -707
360 -1004 363 -546 937 -899 1589 -980 116 -14 441 -15 529 -1 50 8 179 31
225 40 291 59 640 227 900 433 104 82 300 284 382 393 246 328 399 716 442
1119 9 89 7 429 -4 490 -3 19 -11 67 -17 105 -7 39 -12 72 -13 75 -7 27 -26
121 -27 127 -3 34 -100 287 -148 386 -70 145 -87 175 -162 287 -58 88 -69 102
-179 229 -316 365 -801 638 -1269 714 -52 9 -111 19 -130 22 -54 9 -418 13
-480 4z"/>
</g>
</svg>
